<svg width="607" height="440" viewBox="0 0 607 440" fill="none" xmlns="http://www.w3.org/2000/svg">
<g clip-path="url(#clip0)">
<path d="M386.811 329.854V435.921H121.086C90.8105 435.921 66.1779 412.129 66.1779 382.888C66.1779 353.646 90.8105 329.854 121.086 329.854H386.811Z" fill="#F2F2F2"/>
<path d="M393.338 435.105C393.337 436.187 392.907 437.224 392.142 437.989C391.378 438.754 390.34 439.184 389.258 439.184H116.353C101.531 439.184 87.3163 433.296 76.8356 422.815C66.3548 412.334 60.4668 398.118 60.4668 383.295C60.4668 368.473 66.3548 354.257 76.8356 343.776C87.3163 333.295 101.531 327.407 116.353 327.407H389.258C390.34 327.407 391.378 327.837 392.143 328.602C392.908 329.367 393.338 330.404 393.338 331.486C393.338 332.568 392.908 333.606 392.143 334.371C391.378 335.136 390.34 335.566 389.258 335.566H116.353C103.695 335.566 91.5553 340.594 82.6045 349.545C73.6538 358.497 68.6254 370.637 68.6254 383.295C68.6254 395.954 73.6538 408.094 82.6045 417.046C91.5553 425.997 103.695 431.025 116.353 431.025H389.258C390.34 431.026 391.378 431.456 392.142 432.221C392.907 432.986 393.337 434.023 393.338 435.105Z" fill="#37A652"/>
<path d="M386.811 354.331H101.26C101.043 354.331 100.836 354.245 100.683 354.092C100.53 353.939 100.444 353.732 100.444 353.515C100.444 353.299 100.53 353.091 100.683 352.938C100.836 352.785 101.043 352.699 101.26 352.699H386.811C387.027 352.699 387.235 352.785 387.388 352.938C387.541 353.091 387.627 353.299 387.627 353.515C387.627 353.732 387.541 353.939 387.388 354.092C387.235 354.245 387.027 354.331 386.811 354.331Z" fill="#CCCCCC"/>
<path d="M386.811 373.913H101.26C101.043 373.913 100.836 373.827 100.683 373.674C100.53 373.521 100.444 373.313 100.444 373.097C100.444 372.881 100.53 372.673 100.683 372.52C100.836 372.367 101.043 372.281 101.26 372.281H386.811C387.027 372.281 387.235 372.367 387.388 372.52C387.541 372.673 387.627 372.881 387.627 373.097C387.627 373.313 387.541 373.521 387.388 373.674C387.235 373.827 387.027 373.913 386.811 373.913Z" fill="#CCCCCC"/>
<path d="M386.811 393.494H101.26C101.043 393.494 100.836 393.408 100.683 393.255C100.53 393.102 100.444 392.895 100.444 392.678C100.444 392.462 100.53 392.254 100.683 392.101C100.836 391.948 101.043 391.862 101.26 391.862H386.811C387.027 391.862 387.235 391.948 387.388 392.101C387.541 392.254 387.627 392.462 387.627 392.678C387.627 392.895 387.541 393.102 387.388 393.255C387.235 393.408 387.027 393.494 386.811 393.494Z" fill="#CCCCCC"/>
<path d="M386.811 413.076H101.26C101.043 413.076 100.836 412.99 100.683 412.837C100.53 412.684 100.444 412.476 100.444 412.26C100.444 412.043 100.53 411.836 100.683 411.683C100.836 411.53 101.043 411.444 101.26 411.444H386.811C387.027 411.444 387.235 411.53 387.388 411.683C387.541 411.836 387.627 412.043 387.627 412.26C387.627 412.476 387.541 412.684 387.388 412.837C387.235 412.99 387.027 413.076 386.811 413.076Z" fill="#CCCCCC"/>
<path d="M592.177 349.82L525.632 432.412L318.717 265.684C295.142 246.687 290.888 212.706 309.234 189.936C327.58 167.166 361.687 164.096 385.263 183.092L592.177 349.82Z" fill="#F2F2F2"/>
<path d="M531.226 435.872C530.547 436.714 529.561 437.252 528.486 437.368C527.41 437.483 526.333 437.167 525.49 436.489L312.984 265.255C301.442 255.955 294.068 242.451 292.483 227.713C290.897 212.976 295.231 198.212 304.531 186.67C313.83 175.128 327.334 167.753 342.071 166.168C356.808 164.582 371.571 168.916 383.113 178.216L595.619 349.45C596.036 349.786 596.383 350.201 596.64 350.671C596.897 351.141 597.059 351.658 597.117 352.191C597.174 352.723 597.126 353.262 596.975 353.777C596.824 354.291 596.574 354.77 596.237 355.188C595.901 355.605 595.486 355.952 595.016 356.209C594.545 356.465 594.029 356.627 593.496 356.684C592.963 356.741 592.424 356.693 591.91 356.542C591.396 356.391 590.917 356.14 590.5 355.803L377.994 184.57C373.114 180.634 367.506 177.699 361.491 175.931C355.476 174.163 349.172 173.598 342.938 174.267C336.705 174.936 330.664 176.827 325.162 179.832C319.659 182.836 314.803 186.895 310.869 191.777C306.936 196.659 304.002 202.268 302.237 208.284C300.472 214.3 299.909 220.605 300.581 226.838C301.252 233.072 303.146 239.112 306.152 244.613C309.159 250.115 313.22 254.97 318.103 258.902L530.609 430.136C531.451 430.815 531.989 431.8 532.105 432.876C532.22 433.951 531.904 435.029 531.226 435.872Z" fill="#CCCCCC"/>
<path d="M576.82 368.88L354.467 189.712C354.384 189.644 354.315 189.561 354.263 189.467C354.212 189.373 354.18 189.27 354.168 189.164C354.157 189.057 354.166 188.949 354.197 188.847C354.227 188.744 354.277 188.648 354.344 188.564C354.411 188.481 354.494 188.412 354.588 188.36C354.682 188.309 354.786 188.277 354.892 188.265C354.999 188.254 355.106 188.263 355.209 188.294C355.312 188.324 355.408 188.374 355.491 188.441L577.844 367.609C577.928 367.676 577.997 367.759 578.049 367.853C578.1 367.947 578.133 368.051 578.144 368.157C578.156 368.264 578.146 368.372 578.116 368.475C578.086 368.578 578.036 368.674 577.968 368.757C577.901 368.841 577.818 368.91 577.724 368.961C577.63 369.013 577.527 369.045 577.42 369.056C577.313 369.068 577.205 369.058 577.103 369.028C577 368.997 576.904 368.947 576.82 368.88V368.88Z" fill="#CCCCCC"/>
<path d="M564.535 384.127L342.182 204.959C342.014 204.823 341.907 204.626 341.884 204.411C341.861 204.196 341.924 203.981 342.06 203.813C342.195 203.644 342.392 203.537 342.607 203.514C342.822 203.49 343.037 203.553 343.206 203.689L565.559 382.857C565.643 382.924 565.712 383.007 565.764 383.101C565.815 383.195 565.847 383.298 565.859 383.405C565.871 383.512 565.861 383.619 565.831 383.722C565.801 383.825 565.75 383.921 565.683 384.005C565.616 384.088 565.533 384.158 565.439 384.209C565.345 384.26 565.241 384.293 565.135 384.304C565.028 384.315 564.92 384.306 564.817 384.275C564.714 384.245 564.619 384.195 564.535 384.127Z" fill="#CCCCCC"/>
<path d="M552.25 399.375L329.897 220.207C329.728 220.071 329.621 219.874 329.598 219.659C329.574 219.444 329.638 219.228 329.773 219.06C329.909 218.891 330.106 218.783 330.322 218.76C330.537 218.737 330.752 218.8 330.921 218.936L553.274 398.104C553.357 398.172 553.426 398.255 553.478 398.349C553.529 398.443 553.561 398.546 553.573 398.652C553.584 398.759 553.575 398.867 553.545 398.969C553.514 399.072 553.464 399.168 553.397 399.251C553.33 399.335 553.247 399.404 553.153 399.456C553.059 399.507 552.956 399.539 552.849 399.551C552.742 399.562 552.635 399.553 552.532 399.522C552.429 399.492 552.333 399.442 552.25 399.375V399.375Z" fill="#CCCCCC"/>
<path d="M539.965 414.623L317.612 235.455C317.528 235.387 317.459 235.304 317.407 235.21C317.356 235.116 317.324 235.013 317.312 234.907C317.301 234.8 317.31 234.692 317.341 234.589C317.371 234.487 317.421 234.391 317.488 234.307C317.555 234.224 317.638 234.155 317.732 234.103C317.826 234.052 317.93 234.02 318.036 234.008C318.143 233.997 318.25 234.006 318.353 234.036C318.456 234.067 318.552 234.117 318.635 234.184L540.988 413.352C541.072 413.419 541.141 413.502 541.193 413.596C541.244 413.69 541.277 413.794 541.288 413.9C541.3 414.007 541.29 414.115 541.26 414.218C541.23 414.32 541.18 414.416 541.113 414.5C541.045 414.583 540.962 414.653 540.868 414.704C540.774 414.756 540.671 414.788 540.564 414.799C540.457 414.811 540.35 414.801 540.247 414.771C540.144 414.74 540.048 414.69 539.965 414.623Z" fill="#CCCCCC"/>
<path d="M606.184 440H0.81586C0.599481 440 0.391963 439.914 0.238959 439.761C0.0859558 439.608 0 439.4 0 439.184C0 438.968 0.0859558 438.76 0.238959 438.607C0.391963 438.454 0.599481 438.368 0.81586 438.368H606.184C606.401 438.368 606.608 438.454 606.761 438.607C606.914 438.76 607 438.968 607 439.184C607 439.4 606.914 439.608 606.761 439.761C606.608 439.914 606.401 440 606.184 440Z" fill="#CCCCCC"/>
<path d="M275.827 318.706L266.5 318.705L262.064 282.728L275.83 282.729L275.827 318.706Z" fill="#FFB8B8"/>
<path d="M259.837 316.04H277.825V327.366H248.511C248.511 325.879 248.804 324.406 249.374 323.032C249.943 321.658 250.777 320.409 251.829 319.357C252.88 318.306 254.129 317.471 255.503 316.902C256.877 316.333 258.35 316.04 259.837 316.04Z" fill="#2F2E41"/>
<path d="M180.538 318.706L171.212 318.705L166.776 282.728L180.542 282.729L180.538 318.706Z" fill="#FFB8B8"/>
<path d="M164.549 316.04H182.537V327.366H153.223C153.223 325.879 153.516 324.406 154.086 323.032C154.655 321.658 155.489 320.409 156.541 319.357C157.592 318.306 158.841 317.471 160.215 316.902C161.589 316.333 163.062 316.04 164.549 316.04Z" fill="#2F2E41"/>
<path d="M211.692 51.8362V47.7567C211.692 40.7781 214.464 34.0854 219.398 29.1509C224.333 24.2163 231.025 21.4441 238.003 21.4441H238.003C244.982 21.4441 251.674 24.2163 256.609 29.1509C261.543 34.0854 264.315 40.7781 264.315 47.7567V51.8362C264.315 56.8672 262.316 61.6922 258.759 65.2497C255.202 68.8071 250.377 70.8057 245.346 70.8057H230.661C228.17 70.8057 225.703 70.3151 223.402 69.3618C221.1 68.4085 219.009 67.0112 217.248 65.2497C215.486 63.4882 214.089 61.397 213.136 59.0955C212.183 56.794 211.692 54.3273 211.692 51.8362Z" fill="#2F2E41"/>
<path d="M238.003 72.2095C249.07 72.2095 258.042 63.2376 258.042 52.1703C258.042 41.103 249.07 32.1311 238.003 32.1311C226.937 32.1311 217.965 41.103 217.965 52.1703C217.965 63.2376 226.937 72.2095 238.003 72.2095Z" fill="#FFB8B8"/>
<path d="M129.008 121.042C129.821 120.274 130.792 119.694 131.854 119.343C132.916 118.991 134.042 118.876 135.152 119.007C136.263 119.137 137.332 119.51 138.283 120.098C139.234 120.686 140.045 121.476 140.658 122.411L157.836 119.162L162.356 129.119L138.034 133.367C136.394 134.293 134.472 134.585 132.631 134.188C130.79 133.792 129.159 132.733 128.047 131.214C126.934 129.695 126.417 127.82 126.594 125.946C126.772 124.071 127.63 122.326 129.008 121.042V121.042Z" fill="#FFB8B8"/>
<path d="M222.381 84.8296L222.606 85.17L194.438 103.727L146.907 118.905C146.277 119.108 145.736 119.522 145.378 120.078C145.019 120.635 144.864 121.298 144.939 121.955L145.976 130.887C146.022 131.282 146.15 131.663 146.352 132.006C146.554 132.349 146.825 132.646 147.149 132.878C147.472 133.11 147.84 133.271 148.23 133.353C148.62 133.434 149.022 133.433 149.411 133.349L194.144 123.76C196.309 123.299 198.356 122.398 200.158 121.112L231.804 98.5963C232.951 97.7755 233.866 96.6719 234.461 95.3927C235.055 94.1135 235.309 92.7022 235.196 91.2961C235.08 89.888 234.6 88.5344 233.802 87.3684C233.004 86.2025 231.917 85.2643 230.646 84.6462C229.376 84.0281 227.966 83.7513 226.557 83.8431C225.147 83.935 223.785 84.3923 222.606 85.17L222.381 84.8296Z" fill="#CCCCCC"/>
<path d="M266.667 308.496C265.951 308.497 265.25 308.288 264.651 307.897C264.051 307.505 263.579 306.948 263.291 306.293L220.532 200.634C220.432 200.404 220.264 200.211 220.051 200.08C219.838 199.949 219.591 199.886 219.341 199.9C219.091 199.915 218.852 200.005 218.655 200.159C218.459 200.313 218.314 200.524 218.24 200.763L183.355 303.625C183.208 304.104 182.964 304.548 182.639 304.929C182.314 305.31 181.915 305.62 181.466 305.841C181.016 306.062 180.526 306.189 180.026 306.213C179.526 306.238 179.026 306.16 178.557 305.984L166.859 301.597C166.224 301.361 165.667 300.954 165.249 300.42C164.832 299.887 164.571 299.248 164.495 298.575C159.232 252.728 205.125 137.003 205.589 135.84L205.718 135.518L247.553 144.772L247.64 144.867C264.33 163.076 278.05 277.925 280.631 300.763C280.727 301.588 280.539 302.421 280.098 303.125C279.658 303.829 278.99 304.362 278.206 304.636L267.881 308.288C267.491 308.426 267.08 308.496 266.667 308.496Z" fill="#2F2E41"/>
<path d="M230.621 148.497C220.485 148.497 209.185 146.476 205.707 138.135L205.627 137.943L205.735 137.766C208.48 133.261 212.109 125.576 210.159 124.133C206.317 121.292 204.452 116.619 204.618 110.242C204.977 96.4 214.408 84.1102 228.087 79.6606H228.087C231.905 78.4387 235.79 77.4383 239.723 76.6643C242.591 76.0857 245.551 76.1494 248.391 76.8507C251.231 77.5521 253.88 78.8737 256.149 80.7207C258.446 82.5798 260.303 84.9246 261.586 87.5867C262.869 90.2488 263.546 93.162 263.57 96.1171C263.713 110.91 261.436 131.513 249.772 145.658C249.225 146.315 248.464 146.757 247.624 146.908C242.012 147.923 236.324 148.455 230.621 148.497Z" fill="#CCCCCC"/>
<path d="M226.851 147.943C227.402 145.964 228.713 144.283 230.497 143.265C232.281 142.247 234.395 141.974 236.379 142.506C236.784 142.619 237.179 142.766 237.56 142.944L250.603 131.073L259.674 137.184L241.022 153.691C240.179 155.209 238.853 156.403 237.255 157.081C235.656 157.759 233.877 157.883 232.2 157.433C231.223 157.166 230.308 156.707 229.51 156.084C228.711 155.461 228.043 154.686 227.546 153.804C227.049 152.921 226.731 151.949 226.612 150.943C226.492 149.937 226.574 148.918 226.851 147.943Z" fill="#FFB8B8"/>
<path d="M248.537 148.094C247.691 148.095 246.87 147.802 246.215 147.266L241.072 143.062C240.643 142.712 240.299 142.269 240.066 141.767C239.832 141.265 239.716 140.716 239.724 140.163C239.733 139.609 239.866 139.065 240.115 138.57C240.364 138.075 240.722 137.643 241.161 137.306L262.734 120.76C262.989 120.563 263.157 120.273 263.2 119.953C263.244 119.633 263.159 119.309 262.965 119.051L249.65 101.447C248.103 99.4087 247.327 96.8886 247.459 94.333C247.592 91.7775 248.624 89.3512 250.374 87.4837C252.216 85.4936 254.74 84.269 257.443 84.0527C260.146 83.8365 262.832 84.6445 264.968 86.3164L265.052 86.4053L278.956 106.315C280.459 107.494 281.67 109.004 282.493 110.729C283.316 112.453 283.73 114.344 283.702 116.254C283.673 118.165 283.203 120.043 282.329 121.742C281.455 123.44 280.2 124.914 278.662 126.048L250.722 147.374C250.09 147.842 249.324 148.094 248.537 148.094Z" fill="#CCCCCC"/>
<path d="M220.254 46.5329V36.5903L238.003 28.8394L254.928 36.5903V46.5329C254.928 46.9657 254.756 47.3808 254.45 47.6868C254.144 47.9928 253.729 48.1647 253.296 48.1647H221.886C221.453 48.1647 221.038 47.9928 220.732 47.6868C220.426 47.3808 220.254 46.9657 220.254 46.5329Z" fill="#2F2E41"/>
<path d="M237.189 22.7631C234.579 14.4096 240.06 4.83603 248.163 1.52948C256.265 -1.77706 265.959 0.534314 272.796 5.99723C279.634 11.4601 283.876 19.6426 286.123 28.1007C288.371 36.5589 288.798 45.3788 289.212 54.1207C299.168 55.9494 305.94 67.7578 302.491 77.2744C299.043 86.791 286.278 91.5189 277.462 86.5448C268.647 81.5707 266.094 68.1998 272.456 60.3271C275.466 56.602 277.148 51.9789 277.235 47.1901C277.321 42.4012 275.808 37.7204 272.934 33.889C270.06 30.0575 265.99 27.2945 261.368 26.0375C256.746 24.7804 251.838 25.1013 247.419 26.9492C242.513 29.0011 236.356 23.6698 237.189 22.7631Z" fill="#2F2E41"/>
<path d="M125.328 82.4728C113.408 82.3946 101.638 79.8166 90.7775 74.9055C90.131 74.6173 89.5823 74.1474 89.1981 73.5528C88.814 72.9583 88.611 72.2649 88.614 71.557V41.8439C88.6151 40.8705 89.0022 39.9372 89.6905 39.2489C90.3788 38.5606 91.312 38.1734 92.2854 38.1724H158.37C159.343 38.1735 160.277 38.5606 160.965 39.2489C161.653 39.9372 162.04 40.8705 162.041 41.8439V71.5571C162.044 72.2649 161.841 72.9583 161.457 73.5529C161.073 74.1474 160.524 74.6174 159.878 74.9055C149.017 79.8166 137.247 82.3946 125.328 82.4728Z" fill="#37A652"/>
<path d="M125.319 58.4016C124.829 58.402 124.344 58.3045 123.892 58.1147L71.4877 36.0043C70.8119 35.7192 70.237 35.2382 69.8371 34.6234C69.4372 34.0085 69.2306 33.2879 69.2441 32.5545C69.2575 31.8211 69.4903 31.1086 69.9125 30.5088C70.3347 29.909 70.9268 29.4493 71.6126 29.1892L124.018 9.30771C124.862 8.98601 125.795 8.988 126.638 9.31328L178.34 29.1947C179.022 29.457 179.61 29.9167 180.03 30.5151C180.449 31.1135 180.68 31.8233 180.693 32.5538C180.707 33.2843 180.502 34.0022 180.105 34.6157C179.708 35.2291 179.138 35.7103 178.466 35.9976L126.763 58.1076C126.306 58.302 125.815 58.402 125.319 58.4016Z" fill="#37A652"/>
<path d="M94.7329 76.9272C97.4365 76.9272 99.6281 74.7355 99.6281 72.0318C99.6281 69.3282 97.4365 67.1365 94.7329 67.1365C92.0294 67.1365 89.8378 69.3282 89.8378 72.0318C89.8378 74.7355 92.0294 76.9272 94.7329 76.9272Z" fill="#3F3D56"/>
<path opacity="0.2" d="M178.645 32.8591L126.941 54.9691C126.538 55.1415 126.104 55.2309 125.666 55.2319C125.228 55.233 124.793 55.1457 124.39 54.9753L71.9853 32.8655C71.3271 32.5945 70.7781 32.1119 70.4249 31.4939C70.1938 31.8946 70.0506 32.3399 70.0048 32.8002C69.959 33.2605 70.0116 33.7253 70.1592 34.1637C70.3068 34.602 70.5459 35.004 70.8608 35.3429C71.1756 35.6817 71.5589 35.9497 71.9853 36.1291L124.39 58.2389C124.793 58.4093 125.228 58.4966 125.666 58.4955C126.104 58.4944 126.538 58.4051 126.941 58.2327L178.645 36.1226C179.069 35.9417 179.45 35.6728 179.762 35.3338C180.075 34.9948 180.312 34.5933 180.458 34.1559C180.604 33.7184 180.656 33.255 180.61 32.7961C180.564 32.3373 180.421 31.8934 180.19 31.4939C179.84 32.1069 179.296 32.5868 178.645 32.8591Z" fill="black"/>
<path d="M95.1442 72.0129C95.3606 72.0129 95.5681 71.9269 95.7211 71.7739C95.8742 71.6209 95.9601 71.4134 95.9601 71.197V43.896L122.868 34.093C123.085 34.0962 123.293 34.0133 123.449 33.8626C123.604 33.7119 123.693 33.5056 123.696 33.2892C123.699 33.0728 123.617 32.864 123.466 32.7087C123.315 32.5535 123.109 32.4644 122.892 32.4612L95.9844 42.2643C95.7679 42.2593 95.5526 42.2983 95.3516 42.379C95.1506 42.4596 94.968 42.5803 94.815 42.7336C94.6603 42.885 94.5376 43.0659 94.454 43.2655C94.3704 43.4652 94.3277 43.6796 94.3284 43.896V71.197C94.3284 71.4134 94.4143 71.6209 94.5673 71.7739C94.7203 71.9269 94.9279 72.0129 95.1442 72.0129Z" fill="#3F3D56"/>
</g>
<defs>
<clipPath id="clip0">
<rect width="607" height="440" fill="white"/>
</clipPath>
</defs>
</svg>
